<svg width="1099" height="358" viewBox="0 0 1099 358" fill="none" xmlns="http://www.w3.org/2000/svg">
<path fill-rule="evenodd" clip-rule="evenodd" d="M783.45 154.251V72.6629C783.45 55.9065 779.153 42.9403 770.56 33.7642C761.966 24.5881 749.576 20 733.388 20C717.2 20 704.81 24.5881 696.216 33.7642C687.622 42.9403 683.326 55.9065 683.326 72.6629V182.776C683.326 187.168 683.621 191.299 684.211 195.171C694.488 190.284 705.189 185.409 716.301 180.591V70.5684C716.301 56.8042 721.997 49.9221 733.388 49.9221C744.779 49.9221 750.475 56.8042 750.475 70.5684V166.502C761.15 162.326 772.144 158.231 783.45 154.251ZM903.477 120.158V72.6629C903.477 55.9065 899.18 42.9403 890.587 33.7642C881.993 24.5881 869.602 20 853.415 20C837.227 20 824.836 24.5881 816.243 33.7642C807.649 42.9403 803.352 55.9065 803.352 72.6629V147.476C814.087 143.945 825.081 140.527 836.328 137.248V70.5684C836.328 56.8042 842.023 49.9221 853.415 49.9221C864.806 49.9221 870.502 56.8042 870.502 70.5684V127.933C881.288 125.196 892.282 122.598 903.477 120.158ZM669.07 202.525C648.588 212.686 629.965 222.797 613.312 232.447H583.848V22.9922H616.823V202.525H669.07ZM1011.71 102.786C1001.85 103.81 992.103 104.972 982.478 106.264L993.54 22.9922H1023.82L1011.71 102.786ZM961.245 109.35C950.816 110.982 940.535 112.763 930.408 114.678L916.498 22.9922H949.773L961.245 109.35ZM61 22.9922H108.064L129.049 172.902H129.648L150.632 22.9922H197.697V232.447H166.52V73.8598H165.921L141.939 232.447H114.36L90.3778 73.8598H89.7783V232.447H61V22.9922ZM222.304 22.9922H255.279V232.447H222.304V22.9922ZM312.951 22.9922H279.975V232.447H312.951V138.192H348.324V232.447H381.299V22.9922H348.324V108.27H312.951V22.9922ZM431.338 22.9922H476.004L510.178 232.447H477.203L471.208 190.855V191.454H433.736L427.741 232.447H397.164L431.338 22.9922ZM467.311 163.028L452.622 59.4972H452.022L437.633 163.028H467.311ZM559.151 22.9922H526.176V232.447H559.151V22.9922Z" fill="white"/>
<path fill-rule="evenodd" clip-rule="evenodd" d="M760.978 205.392C702.975 227.718 662.76 251.959 640.682 269.707C638.267 271.649 634.527 269.297 635.363 266.312C640.412 248.273 651.765 232.491 668.101 223.323C698.093 206.49 730.239 192.554 762.885 181.076C761.477 187.29 761.527 191.64 761.954 193.932C762.201 193.583 762.457 193.239 762.722 192.902C764.138 188.799 767.926 183.114 771.801 178.006C870.385 144.761 972.14 133.453 1031.85 132.03C1037.54 131.895 1040.08 138.9 1035.72 142.562C1030.78 146.718 1024.58 149.197 1018.15 149.716C946.909 155.463 885.074 167.265 832.781 181.785C817.897 176.685 801.781 175.627 795.377 175.753C801.177 177.493 806.877 180.316 811.191 182.806C815.294 184.707 819.645 188.109 824.1 192.872C828.387 198.061 830.417 203.476 830.417 209.342C830.417 210.696 829.966 213.629 829.289 217.916C828.612 222.203 825.905 228.295 821.167 235.74C816.428 243.411 811.465 250.406 806.05 256.949L804.47 259.205C802.44 261.687 800.409 263.943 798.379 266.199C793.64 271.389 789.128 276.352 784.841 281.09C778.298 288.762 772.432 294.854 767.017 299.366C763.181 302.75 759.346 304.33 755.736 304.33C754.608 304.33 753.254 304.104 751.9 303.653C746.936 301.622 744.455 299.366 744.455 296.659C744.455 295.53 745.131 294.177 746.485 293.049C747.613 291.92 749.418 291.469 751.9 291.469C752.04 291.469 752.265 291.383 752.577 291.264L752.578 291.264L752.58 291.263L752.58 291.263C752.772 291.189 752.997 291.104 753.254 291.018L754.608 290.341C754.922 290.184 755.127 289.917 755.299 289.693C755.373 289.596 755.442 289.507 755.51 289.439L755.736 289.213C755.736 288.987 755.736 288.762 755.51 288.536C755.284 288.31 755.059 288.31 754.833 288.31C753.254 287.634 751.9 286.731 750.772 285.603C749.644 284.475 748.741 282.895 748.516 280.414C748.064 278.157 747.839 275.676 747.839 272.968C747.839 264.62 749.418 252.436 752.351 236.868C753.705 229.874 754.608 226.038 754.833 225.136L755.736 221.977C756.413 220.398 757.089 218.367 757.766 216.337C758.029 215.55 758.257 214.763 758.478 214.002C758.827 212.8 759.157 211.663 759.571 210.696C759.83 210.093 760.055 209.556 760.248 209.098L760.248 209.096L760.248 209.096L760.249 209.095C760.56 208.353 760.786 207.816 760.925 207.537C761.151 207.086 761.376 206.635 761.376 206.183C761.376 206.027 761.268 205.764 760.978 205.392ZM958.434 293.274C959.562 293.274 960.464 293.049 961.593 292.597C962.495 292.372 962.946 291.92 962.946 291.469V290.792C962.946 290.115 962.721 289.439 962.044 288.987C961.367 288.536 960.916 287.859 960.916 286.731C960.69 285.829 960.69 284.926 960.69 283.798C960.69 280.188 961.141 276.578 961.818 272.968C964.3 256.046 966.105 246.119 967.008 243.186C969.038 234.838 970.166 228.971 970.166 226.038C970.166 224.008 969.264 222.654 967.459 221.526C965.428 220.623 963.172 220.172 960.464 220.172C956.854 220.172 954.598 222.654 953.921 227.392L953.47 228.971C952.342 233.258 951.439 237.771 951.214 242.283L950.311 250.406C948.506 265.071 947.604 273.871 947.604 277.255C947.604 280.188 947.83 283.572 948.281 287.182C948.732 289.664 950.086 291.244 952.568 291.92C955.049 292.823 956.854 293.274 958.434 293.274ZM973.776 207.086C974.679 206.86 975.13 206.635 975.13 205.958C975.13 205.732 975.13 205.281 974.904 205.055C974.679 204.83 974.679 204.604 974.679 204.378C974.566 204.378 974.51 204.378 974.481 204.35C974.453 204.322 974.453 204.266 974.453 204.153C974.227 203.927 974.227 203.251 974.227 202.123V202.122C974.227 198.512 974.904 195.128 976.032 192.195C976.484 190.39 976.935 189.036 977.612 187.908C977.711 187.71 977.766 187.512 977.816 187.333C977.881 187.104 977.936 186.907 978.063 186.78C978.063 186.554 978.063 186.329 978.289 185.877C978.382 185.69 978.476 185.465 978.585 185.201C978.74 184.827 978.927 184.375 979.191 183.847V183.17C981.222 177.304 982.124 173.468 982.124 171.663C982.124 169.632 981.222 167.827 979.191 166.248C977.161 164.669 974.904 163.992 972.197 163.992C969.715 163.992 967.91 165.346 967.008 168.279L966.331 170.084C964.977 173.919 964.3 176.627 964.3 178.432V179.109C964.074 179.334 964.074 179.334 964.074 179.56C964.074 179.656 964.074 179.711 964.057 179.76C964.034 179.826 963.979 179.881 963.849 180.011C963.623 180.237 963.623 181.139 963.623 182.267C963.172 184.298 962.946 186.103 962.946 187.908C962.495 190.39 962.269 192.872 962.269 195.354C962.269 198.738 962.495 200.768 963.172 201.671C963.623 202.573 964.3 203.476 965.203 204.153C967.233 206.183 969.715 207.086 972.197 207.086H973.776ZM935.602 317.642C935.376 318.995 934.699 319.672 933.346 319.898C928.382 319.898 925.449 317.19 924.546 311.55C924.321 310.422 924.321 308.617 924.321 305.909C924.321 297.11 924.321 289.89 924.546 284.024L924.772 273.194L923.192 269.358C915.07 250.631 907.85 235.966 901.533 225.361C900.404 231.453 899.276 239.35 898.148 248.826C895.892 269.358 894.764 282.67 894.764 288.31C894.764 289.664 894.764 290.792 894.99 291.469C894.99 293.049 894.313 293.725 892.959 293.725C891.154 293.725 889.349 293.274 887.544 292.146C885.739 291.018 884.385 289.664 883.483 287.634C882.609 285.362 882.141 282.007 881.975 277.78C881.288 277.615 880.631 277.481 880.109 277.481L876.048 278.157C876.048 278.27 876.048 278.327 876.02 278.355C875.991 278.383 875.935 278.383 875.822 278.383C874.243 278.609 873.34 279.06 873.34 279.511C873.34 279.841 873.461 280.293 873.614 280.865L873.614 280.865C873.671 281.074 873.731 281.3 873.791 281.542C874.92 285.829 876.725 289.89 879.658 293.725C880.109 294.402 880.335 294.854 880.335 295.079C880.335 295.756 879.658 296.207 878.304 296.433H877.627C874.92 296.433 872.438 295.756 870.182 294.177C865.895 291.695 863.187 288.31 861.608 284.024C861.157 283.121 860.705 282.67 860.028 282.67C859.889 282.67 859.663 282.756 859.352 282.875L859.351 282.875C859.158 282.949 858.933 283.035 858.675 283.121C856.644 284.024 854.388 284.926 852.132 285.603C848.973 286.731 845.814 288.085 842.655 289.664C841.302 290.341 839.948 291.018 838.369 291.469C838.03 291.582 837.635 291.695 837.24 291.808L837.239 291.808L837.239 291.808L837.238 291.808L837.238 291.808C836.844 291.921 836.45 292.033 836.112 292.146C835.435 292.372 834.533 292.597 833.856 292.597C832.728 292.597 831.6 292.146 830.697 291.469C830.481 291.339 830.273 291.209 830.07 291.083L830.069 291.082C829.214 290.549 828.45 290.072 827.539 289.89C826.411 289.664 825.508 289.439 824.38 288.762C822.349 287.859 821.221 286.28 821.221 284.024C821.447 280.865 821.898 277.706 822.575 274.773C822.575 273.645 822.801 272.291 823.477 270.937C823.929 269.584 824.154 268.004 824.38 266.425L828.216 251.985C828.441 251.083 828.667 250.18 828.892 249.052L830.923 242.509L831.134 241.937C832.622 237.9 833.886 234.471 834.533 231.453L835.435 229.197C837.466 223.105 839.045 219.27 839.948 217.239C840.85 215.208 841.527 213.178 842.204 211.147C842.881 209.117 843.558 207.312 844.235 205.732C844.573 204.942 844.912 204.209 845.25 203.476C845.589 202.743 845.927 202.009 846.265 201.22C846.717 199.64 848.07 196.256 850.552 190.615C851.229 188.585 852.132 186.554 853.034 184.524C853.937 182.493 855.29 181.59 857.321 181.59H857.772C862.736 182.042 866.797 184.072 869.956 187.682C870.407 188.359 870.633 189.036 870.858 189.713L871.084 192.42H870.633L870.858 199.866L869.73 218.593C869.505 221.075 869.279 223.782 869.279 226.264L869.053 241.606C869.053 245.216 869.279 248.826 869.73 252.436V256.046L870.633 265.297C870.858 266.425 871.31 266.876 872.438 266.876C876.438 267.422 879.558 268.993 881.918 271.589C882.001 264.544 882.426 252.444 883.031 235.289C884.16 221.977 885.062 212.275 885.739 206.635C886.19 202.348 886.641 200.092 886.867 199.64H887.093C889.123 198.061 891.154 197.159 893.41 196.482C900.179 196.482 907.173 202.799 914.619 215.434C918.68 222.428 922.516 229.423 926.126 236.868C926.351 233.033 926.577 230.1 926.802 228.52C926.866 228.077 926.947 227.545 927.041 226.929L927.041 226.926L927.042 226.921L927.042 226.92L927.042 226.918C927.283 225.34 927.607 223.214 927.931 220.623C931.089 192.872 935.151 178.883 939.889 178.883C944.175 179.334 947.785 181.365 950.267 184.975C950.267 188.81 949.139 198.512 946.883 214.532C941.017 256.272 937.407 288.762 936.053 311.55L936.053 311.551C935.827 313.581 935.602 315.611 935.602 317.642ZM764.309 279.962C764.084 279.286 764.084 278.609 764.084 277.481C764.084 276.127 764.309 273.419 764.761 269.584L765.212 265.297C769.047 244.088 774.688 223.105 782.134 202.573C783.487 198.512 784.164 195.354 784.164 193.097C784.164 192.42 784.39 191.969 784.616 191.744C784.755 191.604 784.981 191.551 785.292 191.477C785.485 191.432 785.711 191.378 785.969 191.292C790.707 189.487 795.671 188.585 800.86 188.359C810.111 188.585 815.075 190.39 815.526 193.549C815.639 195.241 815.752 196.594 815.836 197.61L815.836 197.61C815.921 198.625 815.977 199.302 815.977 199.64C815.977 205.281 813.947 211.824 809.885 219.721C805.147 228.52 799.507 237.545 792.738 246.344C785.744 255.369 779.652 263.041 774.011 269.358C773.095 270.384 772.244 271.339 771.458 272.221L771.458 272.222C767.404 276.771 765.065 279.395 764.309 279.962ZM843.107 274.547C843.011 274.547 842.956 274.547 842.907 274.53C842.84 274.507 842.785 274.452 842.655 274.322C842.543 274.322 842.486 274.322 842.458 274.294C842.43 274.265 842.43 274.209 842.43 274.096L844.009 269.584C847.168 261.687 849.424 254.467 850.778 247.924C851.003 246.119 851.455 244.539 852.357 242.96C852.583 242.734 852.808 242.058 852.808 241.155V242.734C852.808 244.539 853.034 246.119 853.26 247.698L853.937 252.436L855.29 261.236L855.516 262.138C855.742 264.169 855.967 266.199 856.644 268.23L856.87 269.132C856.87 269.809 856.193 270.261 854.613 270.486C853.034 270.712 849.199 272.066 843.558 274.322L843.107 274.547ZM827.313 319.221L831.6 318.318C833.63 317.867 837.466 316.513 842.881 314.257C853.034 310.196 860.254 307.488 864.767 306.135C865.669 305.909 866.572 305.683 867.248 305.458L869.053 305.007C869.505 305.007 869.956 305.007 870.633 305.232C871.084 305.458 871.535 305.683 872.212 305.683C872.438 305.683 872.889 305.458 873.115 305.232C873.34 305.007 873.566 304.555 873.566 304.33L873.34 302.976C872.663 300.494 871.084 298.464 868.602 296.884C866.12 295.305 863.413 294.628 860.48 294.628H860.028C859.803 294.628 859.577 294.628 859.126 294.854C858.675 295.079 858.224 295.079 857.547 295.079H857.547C853.26 295.53 847.619 296.884 840.625 298.915L832.051 301.397C827.764 302.525 823.929 303.878 820.093 305.909C818.288 306.586 817.386 307.714 817.386 309.068L817.611 310.422C818.739 314.032 821.221 316.739 824.831 318.544C825.508 318.995 826.411 319.221 827.313 319.221ZM968.777 336.82C968.777 337.722 968.326 338.173 967.649 338.173C966.521 338.173 965.393 337.496 963.814 336.143C962.234 334.789 961.332 332.984 961.332 330.728C961.332 327.343 964.039 323.508 969.454 319.221C973.515 315.837 975.997 313.806 976.9 313.129L977.125 312.678C976.9 312.678 976.9 312.678 976.674 312.452C976.448 312.452 976.223 312.227 975.997 312.001C975.772 311.775 975.32 311.098 975.095 310.422C974.869 309.745 974.643 308.617 974.418 307.037C974.418 301.848 975.546 292.372 977.802 279.06C981.863 255.144 988.407 231.453 997.431 208.214C1004.65 189.487 1010.52 178.206 1015.03 174.145C1015.48 173.919 1015.93 173.694 1016.61 173.694C1017.15 173.694 1017.54 173.835 1018.02 174.006C1018.14 174.051 1018.27 174.098 1018.41 174.145C1023.6 176.852 1026.09 180.011 1026.09 183.847C1026.09 187.231 1024.51 192.195 1021.12 198.287L1017.96 205.281C1010.07 223.556 1003.97 239.801 999.236 253.564C994.498 266.876 989.986 284.024 985.473 304.781C985.473 305.007 985.473 305.458 985.248 306.135C985.022 306.812 984.797 307.94 984.797 309.293C984.797 309.519 984.797 309.745 985.022 309.745H985.248C988.407 307.714 995.626 304.555 1006.91 300.494C1012.77 298.464 1017.96 297.335 1022.25 297.335C1025.18 297.335 1028.34 297.787 1031.28 298.689C1034.21 299.592 1036.46 302.299 1038.04 306.812L1038.27 307.94C1038.27 308.617 1037.82 309.293 1036.92 309.745C1036.01 310.196 1034.21 310.647 1031.5 311.098C1028.12 311.775 1023.83 312.678 1018.41 314.257L1010.52 316.965C999.011 320.8 992.242 323.282 990.212 324.41C987.73 325.313 985.022 326.441 981.638 328.02C973.064 332.307 968.777 335.015 968.777 336.368V336.82Z" fill="white"/>
</svg>
